<svg id="Layer_1" enable-background="new 0 0 512.002 512.002" height="512" viewBox="0 0 512.002 512.002" width="512" xmlns="http://www.w3.org/2000/svg"><g><g clip-rule="evenodd" fill-rule="evenodd"><g fill="#fff"><path d="m346.119 352.003 155.883-89.999v-40.001c0-33-27-60-60-60h-372.002c-32.999 0-60 27.001-60 60v40.001l155.883 90 51.789 29.901c22.556 13.419 51.515 14.561 75.838.473z"/><path d="m165.883 352.003-155.883-90v179.999z"/><path d="m165.883 352.003-155.883 89.999c0 33 27 60 60 60h372.002c33 0 60-27 60-60l-155.883-89.999-52.609 30.374c-24.323 14.088-53.281 12.946-75.838-.473z"/><path d="m346.119 352.003 155.883 89.999v-179.999z"/></g><path d="m278.466 232.752c51.367-10.41 90.034-55.815 90.034-110.253 0-62.131-50.367-112.499-112.499-112.499s-112.499 50.368-112.499 112.499c0 54.444 38.676 99.853 90.051 110.257l8.712 32.678c4.104 15.316 23.724 15.323 27.543-.209z" fill="#ccf5fc"/></g><g><path d="m256 199.999c6.769 0 13.518-.888 20.058-2.641 5.334-1.429 8.5-6.912 7.072-12.247-1.43-5.335-6.912-8.5-12.248-7.072-4.853 1.3-9.86 1.959-14.882 1.959-31.705 0-57.5-25.794-57.5-57.5s25.794-57.5 57.5-57.5 57.5 25.794 57.5 57.5v10c0 6.893-5.607 12.5-12.5 12.5s-12.5-5.607-12.5-12.5v-32.498c0-5.523-4.477-10-10-10-3.084 0-5.841 1.398-7.675 3.593-4.448-2.291-9.486-3.593-14.825-3.593-17.92 0-32.5 14.58-32.5 32.5s14.58 32.5 32.5 32.5c6.455 0 12.471-1.899 17.534-5.158 5.767 9.099 15.92 15.158 27.466 15.158 17.92 0 32.5-14.58 32.5-32.5v-10c0-42.733-34.767-77.5-77.5-77.5s-77.5 34.767-77.5 77.5 34.767 77.499 77.5 77.499zm0-64.999c-6.893 0-12.5-5.607-12.5-12.5s5.608-12.5 12.5-12.5 12.5 5.607 12.5 12.5-5.607 12.5-12.5 12.5z"/><path d="m442.002 152.002h-67.143c2.371-9.495 3.642-19.381 3.642-29.502-.001-67.547-54.954-122.5-122.5-122.5s-122.499 54.953-122.499 122.5c0 10.122 1.27 20.007 3.641 29.502h-67.143c-38.598 0-70 31.402-70 70v220c0 38.598 31.402 70 70 70h372.002c38.598 0 70-31.402 70-70v-220c0-38.598-31.402-70-70-70zm-75.883 200 125.883-72.678v145.357zm-110.118-332.002c56.518 0 102.499 45.981 102.499 102.5 0 48.574-34.495 90.82-82.021 100.452-3.724.754-6.698 3.554-7.676 7.225l-8.657 32.473c-.017.062-.033.125-.048.188-.639 2.598-2.051 4.04-3.976 4.06-.917-.012-3.21-.366-4.194-4.04l-8.712-32.678c-.979-3.671-3.954-6.471-7.678-7.225-47.535-9.626-82.036-51.874-82.036-100.455 0-56.519 45.981-102.5 102.499-102.5zm-186.001 152.002h74.008c14.911 33.575 44.546 59.673 81.434 69.149l7.164 26.871c3.033 11.319 12.446 18.876 23.473 18.875.083 0 .167 0 .25-.001 11.029-.114 20.325-7.815 23.165-19.178l7.084-26.572c36.879-9.479 66.506-35.576 81.416-69.145h74.009c27.57 0 50 22.43 50 50v34.229l-203.505 117.493c-20.321 11.77-45.5 11.611-65.712-.413-.038-.022-.075-.044-.113-.066l-202.673-117.015v-34.228c0-27.569 22.43-49.999 50-49.999zm372.002 320h-372.002c-27.57 0-50-22.43-50-50v-162.679l125.883 72.679-58.929 34.022c-4.783 2.761-6.422 8.877-3.66 13.66 1.852 3.208 5.213 5.002 8.669 5.002 1.696 0 3.416-.433 4.991-1.342l68.929-39.796 46.732 26.981c13.363 7.937 28.38 11.908 43.399 11.908 14.684 0 29.367-3.798 42.496-11.403l47.609-27.487 145.563 84.041c-2.789 24.951-24 44.414-49.68 44.414z"/><path d="m52.982 407.19h-.007c-5.523 0-9.996 4.477-9.996 10s4.48 10 10.003 10 10-4.477 10-10-4.477-10-10-10z"/></g></g></svg>